<svg id="Layer_1" height="512" viewBox="0 0 512 512" width="512" xmlns="http://www.w3.org/2000/svg" data-name="Layer 1"><g id="_Path_" data-name=" Path "><path d="m484.72 226.44v59.12l-57.35 9.1a174.831 174.831 0 0 1 -22.86 55.16l34.12 47.01-41.8 41.8-47.01-34.12a174.831 174.831 0 0 1 -55.16 22.86l-9.1 57.35h-59.12l-9.1-57.35a174.831 174.831 0 0 1 -55.16-22.86l-47.01 34.12-41.8-41.8 34.12-47.01a174.831 174.831 0 0 1 -22.86-55.16l-57.35-9.1v-59.12l57.35-9.1a174.831 174.831 0 0 1 22.86-55.16l-34.12-47.01 41.8-41.8 47.01 34.12a174.831 174.831 0 0 1 55.16-22.86l9.1-57.35h59.12l9.1 57.35a174.831 174.831 0 0 1 55.16 22.86l47.01-34.12 41.8 41.8-34.12 47.01a174.831 174.831 0 0 1 22.86 55.16z" fill="#d4e1f4"/></g><path d="m256 128.86a127.14 127.14 0 1 1 -127.14 127.14 127.15 127.15 0 0 1 127.14-127.14z" fill="#eb7288"/><path d="m256 167.46a88.54 88.54 0 1 1 -88.54 88.54 88.539 88.539 0 0 1 88.54-88.54z" fill="#74b4e8"/><circle cx="256" cy="256" fill="#c0c5d9" r="40.04"/><path d="m197.46 256a88.559 88.559 0 0 1 73.54-87.269 88.54 88.54 0 1 0 0 174.538 88.56 88.56 0 0 1 -73.54-87.269z" fill="#66a7d3"/><g fill="#b3d1e7"><path d="m137.49 349.82a174.831 174.831 0 0 1 -22.86-55.16l-57.35-9.1v-59.12l57.35-9.1a174.831 174.831 0 0 1 22.86-55.16l-34.12-47.01 29.183-29.183-17.383-12.617-41.8 41.8 34.12 47.01a174.831 174.831 0 0 0 -22.86 55.16l-57.35 9.1v59.12l57.35 9.1a174.831 174.831 0 0 0 22.86 55.16l-34.12 47.01 41.8 41.8 17.383-12.617-29.183-29.183z"/><path d="m192.18 404.51-13.031 9.458a174.586 174.586 0 0 0 38.191 13.4l9.1 57.35h30l-9.1-57.35a174.831 174.831 0 0 1 -55.16-22.858z"/><path d="m409.447 85.987-12.617-12.617-33.979 24.662a175.644 175.644 0 0 1 16.969 9.458z"/><path d="m362.851 413.968 33.979 24.662 12.617-12.617-29.627-21.5a175.644 175.644 0 0 1 -16.969 9.455z"/><path d="m247.34 84.63 9.1-57.35h-30l-9.1 57.35a174.586 174.586 0 0 0 -38.191 13.4l13.031 9.458a174.831 174.831 0 0 1 55.16-22.858z"/></g><path d="m191.778 123.732-5.25-10.791a159.415 159.415 0 0 0 -19.064 10.971l6.689 9.962a147.329 147.329 0 0 1 17.625-10.142z" fill="#fff"/><path d="m164.165 141.208-7.5-9.365a158.334 158.334 0 0 0 -59.665 124.157h12a146.4 146.4 0 0 1 55.165-114.792z" fill="#fff"/></svg>